<?xml version="1.0" encoding="UTF-8"?>
<svg width="640" height="360" viewBox="0 0 640 360" xmlns="http://www.w3.org/2000/svg">
  <defs>
    <linearGradient id="g" x1="0" y1="0" x2="1" y2="1">
      <stop offset="0%" stop-color="#4CAF50"/>
      <stop offset="100%" stop-color="#2E7D32"/>
    </linearGradient>
  </defs>
  <rect width="640" height="360" fill="#1E1E1E"/>
  <g transform="translate(320,170)">
    <circle r="110" fill="url(#g)" opacity="0.92"/>
    <g transform="translate(-60,-60)">
      <rect x="0" y="0" width="120" height="120" rx="24" ry="24" fill="#ffffff22" stroke="#ffffff44"/>
      <path d="M20 80 L100 80" stroke="#fff" stroke-width="6" stroke-linecap="round"/>
      <circle cx="40" cy="80" r="8" fill="#fff"/>
      <circle cx="80" cy="80" r="8" fill="#fff"/>
      <path d="M40 80 C44 60, 60 50, 80 60" stroke="#fff" stroke-width="6" fill="none" stroke-linecap="round"/>
      <path d="M60 20 C65 15, 75 15, 80 20 C85 25, 85 35, 80 40 C75 45, 65 45, 60 40 C55 35, 55 25, 60 20 Z" fill="#fff" opacity="0.9"/>
    </g>
  </g>
  <text x="320" y="320" fill="#EAEAEA" font-size="28" text-anchor="middle" font-family="Segoe UI, Roboto, Arial" opacity="0.9">HomeChef</text>
</svg>
